<?xml version="1.0" encoding="UTF-8"?>
<svg id="Calque_2" data-name="Calque 2" xmlns="http://www.w3.org/2000/svg" viewBox="0 0 937.14 850.64">
  <defs>
    <style>
      .cls-1 {
        fill: #488f33;
      }

      .cls-1, .cls-2, .cls-3, .cls-4, .cls-5, .cls-6, .cls-7, .cls-8, .cls-9, .cls-10, .cls-11, .cls-12, .cls-13 {
        stroke-width: 0px;
      }

      .cls-2 {
        fill: #74ae3d;
      }

      .cls-3 {
        fill: #4eb073;
      }

      .cls-4 {
        fill: #2b762a;
      }

      .cls-5 {
        fill: #278646;
      }

      .cls-6 {
        fill: #5a9d36;
      }

      .cls-7 {
        fill: #429a56;
      }

      .cls-8 {
        fill: #0b501e;
      }

      .cls-9 {
        fill: #156828;
      }

      .cls-10 {
        fill: #d4e980;
      }

      .cls-11 {
        fill: #b0e182;
      }

      .cls-12 {
        fill: #b8d865;
      }

      .cls-13 {
        fill: #95c249;
      }
    </style>
  </defs>
  <g id="Calque_1-2" data-name="Calque 1">
    <g id="Background">
      <path class="cls-8" d="m843.8,695.66c9,.6-2.74-17.07-3.23-25.78-12.93-5.75-21.55-9.86-34.49-15.61.27,9.37-18.22,6.52-16.92,9.6,9.07,21.52,29.26,30.1,54.63,31.79Z"/>
      <path class="cls-8" d="m816.17,709.11l-.03,87.96"/>
      <path class="cls-8" d="m830,271.06c9,.6-2.74-17.07-3.23-25.78-12.93-5.75-19.62-7.42-32.56-13.17.27,9.37-20.23-6.98-20.24-3.64-.06,28.13,30.65,40.91,56.03,42.59Z"/>
      <path class="cls-8" d="m305.23,807.09c9.22-19.14-.8-15.37-8.77-22.6-10.48-9.51-11.96,6.51-24.89.77.27,9.37-11.28,3.75-9.34,6.47,13.74,19.22,37.44,26.92,43,15.37Z"/>
      <path class="cls-8" d="m310.59,652.64c3.56-8.29-14.12-.88-14.61-9.58-12.93-5.75-7.67,5.05-20.6-.7.27,9.37-7.19,6.24-5.89,9.32,9.07,21.52,28.67,29.88,41.1.96Z"/>
      <path class="cls-8" d="m304.62,535.24c3.98-3.39-13.88,3.68-14.37-5.03-12.93-5.75,0,5.75-12.93,0,.27,9.37-23.29-2.27-20.83,0,17.44,16.14,35.86,15.47,48.14,5.03Z"/>
      <path class="cls-8" d="m293.12,485.66c2.95-8.53,1.92-2.79,1.44-11.5-12.93-5.75-20.8-5.9-17.24,8.62-2.23-9.1-4.17,19.91-2.87,22.99,9.07,21.52,13.57-5.35,18.68-20.12Z"/>
      <path class="cls-8" d="m77.59,773.76c2.22-10.68,15.74-19.22,7.88-15.43-10.08,4.87-39.28,3.65-52.21-2.1.27,9.37,9.98,13.01,11.27,16.09,9.07,21.52,27.88,26.34,33.05,1.44Z"/>
      <path class="cls-8" d="m87.9,753.56c2.34-8.71-12.26-2.34-12.75-11.04-12.93-5.75-22.54-8.29-35.47-14.04.27,9.37-12.4,5.29-11.37,8.47,11.08,33.96,56.15,29.41,59.59,16.61Z"/>
      <path class="cls-8" d="m43.11,351.2c9,.6,13.42-13.22,12.93-21.93-12.93-5.75-36.49.5-49.42-5.25.27,9.37,10.21,19.54,13.5,20.11,20.71,3.59-2.39,5.38,22.99,7.07Z"/>
      <path class="cls-8" d="m293.12,353.47c2.8-3.91-.84-6.6-1.85-9.5-4.66-13.36,6.1,10.24-6.83,4.5.27,9.37-8.84,18.7-7.54,21.78,9.07,21.52,7.77-5,16.23-16.78Z"/>
      <path class="cls-8" d="m696.43,676.99c2.77-1.83-4.67-1.18-10.5-7.08-3.75-3.79.16,4-12.77-1.75.27,9.37.86,18.11,1.86,21.29,8.01,25.45,6.73-2.74,21.41-12.46Z"/>
    </g>
    <g>
      <g id="Background-2" data-name="Background">
        <path class="cls-8" d="m501.85,690.22l-.03,87.96c6.91,1.73-11.13,9.23-11.13,9.23,22.77,29.19,36.14,12.05,41.68,2.87,3.02-5-12.24,0-13.71-11.07-2.12-15.97-1.39-76.13,10.82-102.45,1.91-4.11-8.74,5.45-9.23-3.25-12.93-5.75-7.3.16-20.24-5.58.27,9.37-10.91,7.7-11.82,10.91"/>
      </g>
      <g>
        <g>
          <g>
            <path class="cls-4" d="m826.2,185.36c-2.79-1.48-6.96-1.36-10.06-1.44-.58-.01-10.93,1.3-11.5,1.44-15.42-8.17,26.53-4.64,30.17-15.09,1-2.87-.72-15.18,0-20.83.18-.04-.63-4.77,2.87-2.16-5.77,29.19,16.88,27.7,15.81,37.36-.3,2.66-5.72,7.2-9.34,6.47-3.42-.69-11.92-15.71-12.93-15.81-.51-.05-7.78,5.97-7.9,6.47-.1.43,2.74,1.84,2.87,3.59Z"/>
            <path class="cls-9" d="m212.66,216.97c-1.44-.51-4.47-1.5-5.75-1.44,7.48-14.17,13.91-28.64,16.52-44.54,3.33,16.13-3.97,31.66-10.78,45.98Z"/>
            <path class="cls-12" d="m206.91,215.53c1.28-.06,4.31.93,5.75,1.44,2.03.71,4.91,4.14,7.18,5.75-2.89,6.38-5.06.05-7.18,0-14.46-.36-7.04.02-15.81,2.87-3.03.98-3.43,5.24-5.75,0,3.97-3.95,10.05-9.79,15.81-10.06Z"/>
          </g>
          <g>
            <path class="cls-10" d="m522.17,473.9c-3.48,6.25-7.53,5.35-13.52,7.46-4.95,1.74-9.46,3.96-14.37,5.75-6.96-5.55,8.01,2.78-5.27,0-27.45-5.75.46-9.63,7.6-10.58"/>
            <path class="cls-4" d="m506.37,481.08c-11.37-7.48,5.59,2.47,15.81-7.18-2.79,4.6-12.34,12.68-15.81,7.18Z"/>
          </g>
          <g>
            <g>
              <path class="cls-4" d="m837.7,471.3c-1.35,1.26-2.53,2.35-4.31,2.87-4.38-28.33.3-200.47-2.87-210.5-1.43-4.53-5.46-.69-5.75-.72-1.28-.14-2.75-1.54-2.87-2.87,1.75-.29,3.99-1.07,5.75-1.44.42-.09,1.77,2.04,8.62,0,1.64-.49,16.04-10.26,17.24-7.9-3.7,8.98-18.2,14.68-18.68,15.81-3.99,9.43,3.08,179.01,2.87,204.75Z"/>
              <path class="cls-12" d="m806.09,481.35c3.51.8,15.53.58,20.12,0-1.62,5.93,4.82,3.94,8.62,2.87,14.48-.29-6.83,12.03-24.43,8.62-15.01-2.91-20.94-15.5-27.3-28.02l15.09,13.65c2.45.36,5.81,2.39,7.9,2.87Z"/>
            </g>
            <path class="cls-12" d="m781.66,234.21c5.31,5.27,9.52,11.62,18.68,10.06.57,2.48-.96,6.49.72,8.62,3.12,3.94,17.75-.1,18.68,0,1.2.13.57,2.84.72,2.87-18.77,2.35-29.8.59-40.23-16.52-9.3-15.24-7.71-14.12,1.44-5.03Z"/>
            <path class="cls-4" d="m834.83,257.2c-6.18-4.14-.42-4.95,0-5.75v5.75Z"/>
          </g>
        </g>
        <g>
          <path class="cls-12" d="m507.22,692.57l1.44,96.99c9.74-1.47.51-42.12,5.75-61.07.69,20.26-2.68,47.6,2.87,61.79-.47.53-11.33,7.61-.72,8.62,8.07.77,23.02-21.89,12.21,1.44-3.47-2.76-3.78,1.62-11.5,4.31-2.26.79-8.74-1.14-10.06.72l1.44,45.26c-2.87,0-5.75,0-8.62,0-.96-27.51,4.78-39.59-9.34-63.22,7.39,9.58,19.14,14.68,16.52,5.03-.56-2.06-6.79-3.39-7.18-4.31-1.84-4.33-.29-81.68-1.44-94.12,3.04-.36,5.18-2.18,8.62-1.44Z"/>
          <path class="cls-12" d="m517.28,804.65v45.98c-2.87,0-5.75,0-8.62,0l-1.44-45.26c1.32-1.86,7.8.07,10.06-.72Z"/>
          <path class="cls-13" d="m528.77,800.34c-5.84,12.62-.83,3.52,1.44,7.9,1.02,1.96-7.46,2.33-4.31,42.39-2.87,0-5.75,0-8.62,0v-45.98c7.71-2.69,8.02-7.07,11.5-4.31Z"/>
          <path class="cls-12" d="m508.65,481.35c8.3-1.09,6.67,44.82,5.75,60.35-.53,8.91-11.43,25.66,1.44,27.3,4.65.59,26.02-6.45,1.44,10.06-.45.3-1.63-2.45-5.75.72,2.44,19.39-4.27,86.71-1.44,96.27,2.38,8.02,7.14-3.29,10.06-7.9-.22,5.65,1.79,10.86-5.03,12.93-22.6,6.85-15.8-23.08-16.52-47.42-.66-22.45,3.02-48.31-7.18-68.25-1.23-5.26,4.26-2.96,4.31-4.31.92-24.68-.88-49.35-1.44-74,4.91-1.79,9.42-4,14.37-5.75Z"/>
          <path class="cls-13" d="m517.28,790.28c-5.56-14.19-2.18-41.53-2.87-61.79-.34-9.96,3.47-33.63-7.18-35.92-3.45-.74-5.58,1.07-8.62,1.44-29.96-42.63,10.77,21.86,30.89-17.24,5.53,10.66-9.32,8.67-2.16,22.27-1,1.34-4.25,3.75-4.31,4.31-1.77,16.16,2.02,77.29,0,83.34-.63,1.9-4.86,2.59-5.75,3.59Z"/>
          <path class="cls-13" d="m517.28,579.06c.97,27.58,2.9,55.79,2.87,83.34,0,1.91.07,3.84,0,5.75-2.92,4.61-7.68,15.92-10.06,7.9-2.83-9.56,3.87-76.88,1.44-96.27,4.11-3.17,5.3-.42,5.75-.72Z"/>
          <path class="cls-12" d="m514.4,728.5c-5.24,18.95,3.99,59.6-5.75,61.07l-1.44-96.99c10.65,2.29,6.84,25.96,7.18,35.92Z"/>
        </g>
        <g>
          <path class="cls-13" d="m685.39,531.64c1.63,11.6,6.23,1.43,5.75,6.47-.15,1.53-15.65,14.21-18.68,24.43,3.4,3.1,6.73,6.15,10.06,9.34-7.61-1.2-3.25,21.95-4.31,40.95-.06,1.1-2.82.33-2.87,1.44-1.17,23.34,3.73,64.18-4.31,63.94-.94,0-1.96-.15-2.87,0l2.87-107.05q-12.21,22.63-24.43,45.26c-1.76-1.59-4.13-1.3-4.31-1.44q15.09-32.33,30.17-64.66c5.44-6.06,3.69-9.19,8.62-10.78.9-6.24-1.46-8.87-1.44-9.34.62-10.9,1.79-28.7-2.87-36.64,6.48-20.75,1.14-52.79,2.87-76.87,2.32-1.34,4.94-2.87,7.18-4.31,5.28,28.35-3.81,60,4.31,85.49-7.88,1.24-6.8,26.3-5.75,33.77Z"/>
          <g>
            <g>
              <path class="cls-12" d="m681.08,850.63c-4.79,0-9.58,0-14.37,0,2.56-16.67,3.3-33.45,2.87-50.29,1.7-1.86,6.07-.79,7.18-3.59,1.45-3.64,1.41-68.07,1.44-78.31,1.57-.62,3.54-2.68,4.31-.72,1.47,3.72-1.11,65.84-1.44,77.59,0,.3-4.23,2.1-4.31,4.31-.37,10.59,6.28,34.61,4.31,51.01Z"/>
              <path class="cls-10" d="m685.39,714.13c-2.39,28.07-1.21,55.97-1.44,84.06,12.48,7.64-.45,27.82,2.87,52.45-1.92,0-3.83,0-5.75,0,1.97-16.4-4.68-40.42-4.31-51.01.08-2.21,4.3-4.01,4.31-4.31.33-11.75,2.9-73.87,1.44-77.59-.77-1.96-2.74.1-4.31.72.02-7.42-.01-14.85,0-22.27-4.47-6.04-7.78.87-11.5-9.34,2.3-6.52,1.29.01,10.06,0,16.14-.03,30.66-26.85,8.62,6.47-.42,6.88.58,13.98,0,20.83Z"/>
              <path class="cls-13" d="m666.71,850.63c-2.39,0-4.79,0-7.18,0,2.57-16.93-1.98-37.13,10.06-50.29.43,16.84-.31,33.62-2.87,50.29Z"/>
            </g>
            <path class="cls-13" d="m678.21,718.44c-.02,10.24.01,74.67-1.44,78.31-1.12,2.8-5.48,1.73-7.18,3.59-.04-1.7-2.86-2.98-2.87-3.59-.63-26.91-1.28-54.29-1.44-81.18-.04-7.39-.69-17.86,0-24.43.02-.23,1.14-3.48,1.44-4.31,3.72,10.21,7.02,3.3,11.5,9.34-.01,7.42.02,14.85,0,22.27Z"/>
            <path class="cls-4" d="m671.02,678.21c.39,0,5.74,2.54,7.18,2.87-1.39,1.48-1.67,3.77-1.44,5.75-8.77.01-7.76-6.52-10.06,0-.29.84-1.41,4.08-1.44,4.31-10.08-5.88-7.22-11.3,2.87-12.93.91-.15,1.93,0,2.87,0Z"/>
          </g>
          <path class="cls-12" d="m682.52,571.88c1.51,1.45,3.56,3.67,4.31,4.31-3.5,10.03,0,10.92,0,11.5-.05,3.43.04,6.76,0,10.06-.14,10.61-.15,74.61-1.44,78.31-1,2.89-5.37,3.1-7.18,5.03-1.44-.34-6.8-2.88-7.18-2.87,8.04.23,3.14-40.6,4.31-63.94.06-1.1,2.81-.33,2.87-1.44,1.06-19-3.3-42.15,4.31-40.95Z"/>
        </g>
        <g>
          <g>
            <path class="cls-2" d="m79.03,850.63c-9.1-.03-18.2.03-27.3,0,2.85-25.68-5.78-66.79,2.87-77.59,8.73.22,21.94-1.78,22.99.72l1.44,76.87Z"/>
            <path class="cls-12" d="m54.6,773.04c-8.66,10.8-.03,51.92-2.87,77.59-1.92,0-3.83,0-5.75,0q-.72-39.15-1.44-78.31l2.16-2.16c1.28.99,7.48,2.86,7.9,2.87Z"/>
          </g>
          <g>
            <path class="cls-12" d="m63.22,340.54c-3.02,3.41-5.6,5.8-10.06,7.18-1.16.36-4.46,1.19-5.75,1.44-3.35.65-17.32-1.14-18.68.72q4.31,102.38,8.62,204.75l-4.31-2.87c-3.83-61.67-2.58-124.56-7.18-186.08-1.77-23.56-6.14-20.45-5.75-21.55,25.75.38,6.4-.6-2.16-6.47-5.01-3.44-20.41-23.89-9.34-18.68,1.2,9.07,12.09,13.69,20.12,14.37,5.34.45,4.93-.63,8.62-1.44.28,4.9,14.01-.38,15.09,0,5.74,2.03,4.69,12.47-17.24,10.06v2.87c9.94.43,19.23.92,25.15-8.62,29.71-45.6,12.38-6.41,2.87,4.31Z"/>
            <path class="cls-12" d="m22.99,548.89c.35,6.5,11.02,15.38,17.24,12.93,1.86,1.79,5.7,4.04,8.62,4.31,7.49.7,20.53-3.53,20.12,8.62-.03.96.02,1.92,0,2.87-.1.02.52,1.15-1.44,1.44-3.1.46-6.83-.3-10.06,0-5.18.48-10.65.02-15.81-.72-.5,26.5,8.27,157.04,7.18,165.24-.14,1.04-1.99.74-2.87.72-.63-.79-5.38-3.62-5.75-5.03-1.01-3.86-.97-67.02-1.44-79.75-.95-26.02-.38-52.27-1.44-78.31-1.11-14.78-17.66-21.46-17.96-36.64,1.93,1.09,1.64,3.33,3.59,4.31Z"/>
            <path class="cls-12" d="m51.73,250.02c6.08,19.52-4.6,19.68-4.31,20.83.56,2.22,5.54-1.5,7.18.72-3.68,3.1-6.37,1.98-10.06,2.87-7.77,1.88-15.69.96-22.99,5.03,4.7,13.44-2.65,36.89,4.31,48.14-2.33-1.28-4.8-1.68-7.18-2.87,1.85-17.94-3.64-40.7,1.44-48.14-9.63,2-7.21-9.59-20.12-27.3,24.08,9.02,33.45,2.56,51.73.72Z"/>
            <path class="cls-13" d="m58.91,250.02c-.34,6.66,1.56,16.61-4.31,21.55-1.64-2.22-6.62,1.51-7.18-.72-.29-1.15,10.39-1.31,4.31-20.83,2.31-.23,1.04-2.42,7.18,0Z"/>
            <path class="cls-4" d="m33.05,551.76l4.31,2.87c4.23.55,2.37,6.7,2.87,7.18-6.23,2.45-16.89-6.43-17.24-12.93,4.01,2.01,10.9,4.82,10.06,2.87Z"/>
            <path class="cls-5" d="m18.68,324.73c2.39,1.19,4.86,1.59,7.18,2.87.21.34,3.96-1.9,2.87,5.75-8.02-.68-18.91-5.3-20.12-14.37,3.54,1.67,6.55,4,10.06,5.75Z"/>
            <path class="cls-13" d="m57.48,579.06c5.44,16.49,1.86,35.01,2.87,52.45.24,4.14,3.76,21.63,4.31,37.36.95,26.99-.71,54.17,0,81.18-11.73,6.72,7.95,10.25,10.78,10.06,1.06-.07,22.95-15.62,7.18,1.44-.48.52-4.26-.86-5.03.72,10.63,3.12,8.53,11.75,2.16,10.78-4.04-.61-3.64-5.63-4.31-5.75-12.79-2.25-45.4,10.4-47.42-31.61,3.39,17.22,29.43,27.37,25.15,13.65-.59-1.9-5.04-2.36-7.18-5.03.88.02,2.74.32,2.87-.72,1.08-8.2-7.69-138.74-7.18-165.24,5.15.74,10.62,1.2,15.81.72Z"/>
            <path class="cls-6" d="m67.53,579.06c-.04,23.25,10.59,157.24,7.18,165.96-1,2.56-7.02,3.29-10.06,5.03-.71-27.01.95-54.19,0-81.18-.56-15.73-4.07-33.21-4.31-37.36-1.01-17.44,2.57-35.96-2.87-52.45,3.23-.3,6.95.46,10.06,0Z"/>
            <path class="cls-2" d="m37.36,331.92c-3.7.8-3.29,1.89-8.62,1.44,1.09-7.65-2.66-5.41-2.87-5.75-6.96-11.24.39-34.69-4.31-48.14,7.3-4.07,15.22-3.15,22.99-5.03-.98,5.35,6.59.71,8.62,5.03.98,2.08-.24,38.6,1.44,45.98-.85,2.16-14.49,5.87-17.24,6.47Z"/>
            <path class="cls-2" d="m47.42,349.16q5.03,104.17,10.06,208.35c-6.33,1.59-10.24.55-8.62,8.62-2.92-.27-6.76-2.52-8.62-4.31-.5-.48,1.35-6.64-2.87-7.18q-4.31-102.38-8.62-204.75c1.36-1.86,15.33-.07,18.68-.72Z"/>
            <path class="cls-6" d="m53.16,347.72l4.31,7.9q3.59,100.58,7.18,201.16c-5.55,4.16-6.83.63-7.18.72q-5.03-104.17-10.06-208.35c1.29-.25,4.59-1.08,5.75-1.44Z"/>
            <path class="cls-4" d="m70.41,564.69c.74,1.79,2.34,2.5,2.87,4.31-.46.89,1.4,5.89-4.31,5.75.42-12.16-12.62-7.92-20.12-8.62-1.61-8.07,2.29-7.03,8.62-8.62.35-.09,1.63,3.44,7.18-.72q-3.59-100.58-7.18-201.16l-4.31-7.9c4.46-1.38,7.04-3.78,10.06-7.18-.86,5.66,9.78,1.16,17.24,3.59l-20.12,10.06c5.59,35.52,2.84,193.08,10.06,210.5Z"/>
          </g>
        </g>
        <g>
          <path class="cls-2" d="m824.77,262.95c-1.93,70.34,1.37,140.85,2.87,211.22-5.31.68-17.16.77-21.55-1.44v-194.7l-2.87,7.18-1.44-23.71c2.63-.7,12.77-.23,20.12-1.44.12,1.34,1.59,2.73,2.87,2.87Z"/>
          <path class="cls-12" d="m801.78,261.51l1.44,23.71,2.87-7.18v194.7c-1.43-.72-2.89-1.41-4.31-2.16-.29-68.99-2.51-137.96-4.31-206.91,1.91-2.77,3.37-1.91,4.31-2.16Z"/>
          <path class="cls-13" d="m834.83,251.45c-.42.8-6.18,1.61,0,5.75.19.13,1.59-.31,1.44,1.44-6.85,2.04-8.2-.09-8.62,0-1.18-4.29-4.64-2.23-7.18-2.87-.14-.04.48-2.74-.72-2.87-.93-.1-15.56,3.94-18.68,0-1.68-2.13-.15-6.14-.72-8.62,3.21.33,6.97-.48,10.06,0,24.84,3.82,15.06,10.93,24.43-2.87,6.15-9.06,10.87-23.84,10.06-12.21-.51,7.4-6.75,15.94-10.06,22.27Z"/>
          <path class="cls-4" d="m834.83,241.4c-9.37,13.8.42,6.69-24.43,2.87-.65-4.24,2.3-2.51,5.75-2.87,5.78-.61,7.89,1.73,12.93-5.03-1.83-17.01-1.61-33.93-2.87-51.01,11.78,6.26,4.18,43.91,8.62,56.04Z"/>
          <path class="cls-5" d="m794.59,235.65c.22.04-.65,2.11,4.31,1.44.24,1.69,1.03,5.39,1.44,7.18-9.16,1.56-13.37-4.79-18.68-10.06,4.03.25,9.04.73,12.93,1.44Z"/>
          <g>
            <path class="cls-12" d="m836.26,498.6c-4.55,1.08-27.18-1.48-28.74.72q.72,21.91,1.44,43.82c-1.35-.56-4.35-.9-5.75-1.44,1.59-12.59-3.4-38.61,2.87-45.98,35.47,2.97,30.54-5.82,32.33-5.75.65.03,6.66,6.52-2.16,8.62Z"/>
            <path class="cls-2" d="m836.26,498.6v5.75c-1.59,21.38,1.11,162.07-2.87,169.55-1.95,3.66-4.92,4.08-8.62,4.31-2.48-4.21-12.86-3.24-14.37-6.47-2.51-5.37-.6-103.28-1.44-118.54,17.1-6.21,20.5-1.61,0-10.06q-.72-21.91-1.44-43.82c1.56-2.19,24.19.37,28.74-.72Z"/>
            <path class="cls-1" d="m842.01,504.34c-2.2,21.29-2.01,43.31-1.44,64.66.5,18.77.03,40.27,5.75,57.48-.36,6.3.31,14.38,0,20.12-.09,1.75-2.84,2.97-2.87,3.59-.31,6.16,3.58,31.3,1.44,35.92-7.56,16.29-5.88-20.96-11.5-12.21,3.98-7.48,1.28-148.17,2.87-169.55,6.15-2.44,5.46.03,5.75,0Z"/>
            <path class="cls-12" d="m824.77,678.21c-12.53.78-20.48-8.1-21.55-8.62l1.44-114.95c1.43-.49,2.85-.91,4.31-1.44.83,15.26-1.07,113.17,1.44,118.54,1.51,3.23,11.89,2.25,14.37,6.47Z"/>
            <g>
              <path class="cls-13" d="m831.95,702.63v148c-6.23.01-12.45-.01-18.68,0v-149.44c5.82.61,12.85,1.17,18.68,1.44Z"/>
              <path class="cls-2" d="m842.01,702.63c-1.86,49.19,1.38,98.77,0,148-3.35,0-6.71,0-10.06,0v-148c4.54.2,6.05-3.1,10.06,0Z"/>
              <path class="cls-13" d="m813.27,701.2v149.44c-2.39,0-4.79,0-7.18,0l-1.44-150.87c9.53-.82,8.19,1.39,8.62,1.44Z"/>
              <path class="cls-12" d="m791.72,665.27c5.29,16.49,23.37,23.99,39.51,18.68,4.08,12.16,12.06,3.22,13.65,12.93-13.81,4.59-26.34,1.12-40.23,0q-7.9-14.37-15.81-28.74c.24-.14-.17-3.94,0-5.03,3.51-2.62,2.7,2.14,2.87,2.16Z"/>
              <path class="cls-11" d="m844.88,696.89c.57,5.98-2.79,3.55-2.87,5.75-4.01-3.1-5.52.2-10.06,0-5.83-.26-12.86-.83-18.68-1.44-.43-.05.91-2.26-8.62-1.44v-2.87c13.89,1.12,26.42,4.59,40.23,0Z"/>
            </g>
            <path class="cls-1" d="m833.39,474.17c-1.89.15-3.88-.24-5.75,0-1.51-70.37-4.8-140.88-2.87-211.22.29.03,4.31-3.81,5.75.72,3.18,10.04-1.5,182.18,2.87,210.5Z"/>
          </g>
          <path class="cls-7" d="m849.19,502.91c-5.52,26.11,1.96,67.49-8.62,66.1-.57-21.35-.76-43.37,1.44-64.66,1.19-.12,6.72-1.26,7.18-1.44Z"/>
          <path class="cls-13" d="m816.15,183.92v57.48c-3.45.36-6.39-1.37-5.75,2.87-3.09-.48-6.85.33-10.06,0-.41-1.79-1.19-5.49-1.44-7.18-2.24-15.63-.95-33.77-4.31-49.57,3.39-.66,6.7-1.36,10.06-2.16.56-.13,10.92-1.45,11.5-1.44Z"/>
          <g>
            <path class="cls-10" d="m834.83,149.44c-.72,5.65,1,17.97,0,20.83-3.64,10.45-45.6,6.92-30.17,15.09-3.36.8-6.67,1.49-10.06,2.16,3.36,15.81,2.07,33.95,4.31,49.57-4.96.67-4.09-1.4-4.31-1.44l-5.75-53.88c21.42-3.41-1.3,5.36-18.68-33.05,24.9,12.06,41.11,5.61,64.66.72Z"/>
            <path class="cls-12" d="m785.25,165.24c25.75,16.24,41.84-9.03,40.95,5.03-.57,8.96-37.03,10.71-40.95-5.03Z"/>
          </g>
          <path class="cls-1" d="m826.2,185.36c1.27,17.07,1.04,34,2.87,51.01-5.04,6.76-7.15,4.42-12.93,5.03v-57.48c3.1.08,7.26-.05,10.06,1.44Z"/>
        </g>
        <g>
          <path class="cls-12" d="m277.32,442.56c.92.18,3.8,2.35,11.5,1.44-7.91,8.77-2.49,24.48-7.18,37.36-3.01,1.48-4.11,1.33-4.31,1.44-4.21,1.18-.1-19.08-1.44-33.77q-12.21-5.75-24.43-11.5c8.74,1.01,17.24,3.34,25.86,5.03Z"/>
          <path class="cls-12" d="m294.56,474.17c-4.44,2.13-8.47,4.98-12.93,7.18,4.7-12.88-.73-28.59,7.18-37.36l15.81-12.93c3.38,3.49-18.96,14.44-10.06,43.11Z"/>
          <path class="cls-12" d="m293.12,349.16c-2.97,2.36-5.78.96-7.18,1.44-2.07.09-1.38-2.06-1.44-4.31-.81-34.53-1.81-22.16-7.18-35.92,22.86-5.36,14.66,17.29,15.81,38.8Z"/>
          <path class="cls-12" d="m293.12,353.47c.33,13.31,3.9,26.9,0,40.23-7.18-1.61-9.22-1.68-17.24-4.31,3.98-7.48-.12-15.03,0-15.81,1.11-6.92,10.2-17.47,17.24-20.12Z"/>
          <path class="cls-4" d="m277.32,426.75c6.05,10.22,13.07,4.26,14.37,4.31,5.29.21,11.31-2.3,12.93,0l-15.81,12.93c-7.7.91-10.57-1.26-11.5-1.44.94-7.56-2.44-14.17-2.87-21.55,2.01,1.23,1.74,3.84,2.87,5.75Z"/>
          <path class="cls-10" d="m294.56,409.51c-.78,7.35,2.31,15.81-2.87,21.55-1.3-.05-8.32,5.91-14.37-4.31,11.51,6.74,4.44-6.83,8.62-20.12,9.81,1.04,8.17,2.84,8.62,2.87Z"/>
          <g>
            <g>
              <path class="cls-12" d="m284.5,798.9c10.33,2.62,26.22-14.15,24.43-3.59-.21,1.25-9.63,9-11.5,10.78-.3.28-3.84-1.03-5.75,2.16q2.16,21.19,4.31,42.39c-3.83,0-7.66,0-11.5,0-4.65-13.06-5.87-27.32-5.75-40.95-.68-1.13-9.19,2.4-8.62-13.65,1.46.25,4.34,3.19,5.75.72,1.38-2.41-.98-7.04-1.44-9.34-.16-2.77,4.4,1.96,5.75-.72,3.6-7.16-4.74-97.57,0-114.23.75.9,5.15,1.73,5.75,3.59,1.81,5.65-1.66,89.48,1.44,109.2-6.37,1.38-8.73,12.16-2.87,13.65Z"/>
              <path class="cls-12" d="m270.13,796.03c-.57,16.05,7.94,12.52,8.62,13.65-.12,13.63,1.1,27.89,5.75,40.95-3.35,0-6.71,0-10.06,0-.89-6.86-3.27-44.59-4.31-46.7-1.19-2.42-14.49-7.41-7.9-12.21,2.09,2.65,4.63,3.74,7.9,4.31Z"/>
              <path class="cls-13" d="m297.43,806.09c20.3,1.26,4.36,5.79,2.87,10.78-1.21,4.07,3.14,23.25,1.44,33.77-1.92,0-3.83,0-5.75,0q-2.16-21.19-4.31-42.39c1.91-3.18,5.45-1.87,5.75-2.16Z"/>
            </g>
            <path class="cls-12" d="m284.5,798.9c-5.86-1.49-3.5-12.28,2.87-13.65-3.09-19.72.37-103.55-1.44-109.2-.6-1.86-5-2.69-5.75-3.59-1-1.2-3.7-3-5.75-5.75-1.78-2.39-5.53-5.88-5.75-9.34-1.38-21.55,9.34,26.37,32.33,7.9.97-.78,16.42-26.57,6.47-2.16-2.5,6.14-12.41,11.35-12.93,12.93-1.73,5.25,4.6,103.45,1.44,110.64-2.53,5.75-14.4-4.56-11.5,12.21Z"/>
            <path class="cls-12" d="m284.5,540.27c4.33,21.86-1.13,109.13,1.44,114.23,1.35,2.67,5.91-2.05,5.75.72-19.11,10.11-15.9-9.2-17.24-43.11-.44-11.19-.9-56.12,0-61.79.49-3.09,2-6.74,2.16-10.06,2.5-.36,6.17.53,7.9,0Z"/>
            <path class="cls-12" d="m296,606.36c0,9.99,2.82,45.08-4.31,48.85.16-2.77-4.4,1.96-5.75-.72-2.57-5.1,2.89-92.38-1.44-114.23,1.34-.41,2.83-.99,4.31-1.44,2.1-.63,15.07-4.99,15.81-3.59-17.18,19.18-8.64,47.49-8.62,71.13Z"/>
            <path class="cls-13" d="m280.19,672.46c-4.74,16.66,3.6,107.07,0,114.23-1.35,2.67-5.91-2.05-5.75.72-.03-.18-2.75-1.03-2.87-2.16-.97-8.53-1.02-109.29,0-114.95.14-.76,2.91-1.95,2.87-3.59,2.05,2.75,4.75,4.55,5.75,5.75Z"/>
            <path class="cls-10" d="m290.25,530.21h-1.44c-10.48,1.33-4.75-25.96-4.31-35.92,2.74-2.89,6.25-5.96,8.62-8.62-1.37,14.7,3.15,31.52-2.87,44.54Z"/>
            <path class="cls-12" d="m288.81,530.21h-11.5c-4.96-8.25-1.63-16.05-2.87-24.43.57-.51,7.04-8.32,10.06-11.5-.44,9.97-6.16,37.25,4.31,35.92Z"/>
            <path class="cls-4" d="m288.81,538.83c-1.48.45-2.97,1.03-4.31,1.44-1.73.53-5.41-.36-7.9,0-.15,3.31-1.67,6.97-2.16,10.06,1.31-5.03-12.64-9.14-17.96-20.12,9.99,8.35,20.47,6.25,32.33,8.62Z"/>
            <path class="cls-4" d="m288.81,530.21h1.44c-3.59,7.77-9.03,6.48-12.93,0h11.5Z"/>
          </g>
          <path class="cls-12" d="m285.94,406.64c-4.18,13.28,2.89,26.86-8.62,20.12-1.13-1.91-.87-4.52-2.87-5.75-.33-5.61.98-10.35,1.44-15.81,3.43.48,6.54,1.06,10.06,1.44Z"/>
        </g>
        <g>
          <path class="cls-8" d="m601.28,439.8c-37.79,13.87-91.42,11.41-130.76,4.31-56.7-10.23-30.55-7.16-4.31-11.5,30.01-4.96,62.68-21.46,95.55-16.52-30.15-24.97-50.11-59.05-79.03-84.78l2.16-2.16c49.51,24.16,95.11,53.98,135.78,91.24,3.24-34.11-6.56-24.69-11.5-35.92-13.79-31.37,7.73-103.55,10.78-138.66,8.97,35.19,31.09,123.92,3.59,148.72l3.59,29.46c50.43-52.28,63.26-46.07,122.85-72.56-16.48,22.71-39.65,45.98-63.22,61.07-2.25,1.44-4.86,2.97-7.18,4.31-6.32,3.64-22.32,12.95-28.02,14.37-12.54,3.13-24.09-1.05-23.71,2.16,19.42,8.02,35.73,13.87,50.29,30.17-15.81,1.62-32.04,1.82-46.7-5.03l-2.16,2.16,2.87,87.65c11.33,4.93,16.48-23.27,47.42-17.96-.03.47,2.34,3.1,1.44,9.34-4.94,1.59-3.18,4.72-8.62,10.78-12.83,14.3-36.51,17.44-37.36,19.4l-1.44,41.67c2.24,3.36,5.39,1.22,8.62,3.59.18.13,2.55-.16,4.31,1.44,12.86,11.64.85,77.79-4.31,95.55,10.18,1.59-2.51,13.29-3.59,12.21-17.25,13.78-8.31-6.68-10.78-22.27-.05-.32-2.69-3.51-2.87-5.03-9.27-77.32,25.68-60.15-35.92-48.85-5.12.94-12.27,2.81-12.93,2.87-1.81.17-14.48.26-14.37-2.16,10.86-3.88,13.64-7.52,14.37-7.9,4.15-2.19,7.88-3.26,17.24-8.62,11.87-6.8,22.53-15.38,35.92-19.4l1.44-43.11-24.43-1.44q11.5-7.9,22.99-15.81c-5.79-31.65,5.62-109.36-15.81-97.71"/>
          <path class="cls-13" d="m211.22,785.97c-2.96,22.2-12.66,34.93-1.44,64.66-3.83,0-7.66,0-11.5,0,8.41-44.11-5.04-54.16-5.75-74.72,8.36-27.71-1.67,7.23,10.78,8.62,3.05-10.2,3.57-.57,7.9,1.44Z"/>
          <path class="cls-8" d="m191.1,225.59c2.32,5.24,2.72.98,5.75,0,33.56,12.46-42.16,73.34-57.48,90.52v-10.06q18.68-28.38,37.36-56.76l-2.16-2.16c-3.56,3.67-7.59,7.79-12.21,10.06-7.24,3.56-37.31,13.73-45.98,15.81-38.3,9.19-57.19,4.04-58.91,6.47q1.44,28.38,2.87,56.76c-5.92,9.54-15.21,9.05-25.15,8.62v-2.87c21.93,2.41,22.98-8.02,17.24-10.06-1.07-.38-14.8,4.9-15.09,0,2.75-.6,16.39-4.31,17.24-6.47-1.68-7.38-.46-43.9-1.44-45.98-2.03-4.32-9.6.32-8.62-5.03,3.69-.89,6.38.22,10.06-2.87,5.87-4.94,3.97-14.89,4.31-21.55,13.04,5.14-3.2,23.44,3.59,22.99,9.27-.62,48.33-26.08,61.79-31.61,8.43-3.46,36.85-7.05,14.37-10.06-11.24-1.5-44.55,5.45-11.5-5.75,15.88-5.38,51.94-13.59,63.94,0Z"/>
          <path class="cls-8" d="m573.31,479.92c-.67,8.93,1.65,25.23-1.44,41.67-4.68,24.94-23.05,61.61-43.82,77.59-3.33-41.91,37.01-103.49,9.34-65.38-7.98,10.99-14.72,23.46-21.55,35.2-12.87-1.64-1.97-18.39-1.44-27.3,16.62-23.38,23.66-61.76,58.91-61.79Z"/>
          <path class="cls-12" d="m209.78,593.43c-1.97,16.75-1,33.51-1.44,50.29-1.08,41.86-9.19,94.73,5.75,128.6-1.16,4.39-2.28,9.17-2.87,13.65-4.34-2-4.85-11.64-7.9-1.44-12.45-1.39-2.41-36.33-10.78-8.62-.73-21.18,7.19-42.79,8.62-63.94,1.44-21.26.83-42.67,1.44-63.94.4-13.93,1.5-27.65,1.44-41.67-.05-10.39-.27-20.56-1.44-30.89h2.87v11.5l4.31,6.47Z"/>
          <path class="cls-12" d="m201.16,544.58c.21-.81-.23-2.12,0-2.87.05-.16,2.42.55,2.87-.72.65-1.81-1.9-2.61-1.44-3.59.2-.41-.11-1.79,0-2.87,12.98,3.83,3.04,27.59.72,38.8.59-10.91,2.85-27.06-2.16-28.74Z"/>
          <path class="cls-13" d="m633.66,850.63c-4.79,0-9.58,0-14.37,0,1.18-20.48,7.82-73.33,7.18-86.93-.76-16.1-8.27-20.75-7.18-33.05,7.14-7.34,3.36-16.44,2.87-25.15-.17-3.02-1.18-7.18,2.87-8.62.18,1.52,2.82,4.71,2.87,5.03,2.47,15.59-6.48,36.05,10.78,22.27l2.16,2.16c-15.59,43.21-15.42,79.59-7.18,124.29Z"/>
          <path class="cls-12" d="m219.84,403.76c-.5,4.23-1,8.7-1.44,12.93-2.74,26.77-6.23,53.43-4.31,80.47,13.15,14.57-6.29,13.11-4.31,28.02l-2.87.72c-1.63-8.5-8.53-15.51-4.31-24.43,1.68-.13,2.26-1.56,2.87-2.87.17-.35,2.89,1.5,4.31-6.47.49-2.72,1.35-46.55,1.44-55.32.13-12.93,4.88-20-2.87-23.71-.72-1.66,1.57-2.22,1.44-3.59l10.06-5.75Z"/>
          <path class="cls-12" d="m224.15,296c5.58-1.34.42,12.29,1.44,29.46.04.6,2.65,1.74,2.87,3.59.13,1.13,2.2,2.39,1.44,6.47-1.23,1.61-3.85,2.96-4.31,5.03-9.26,41.21-2.54,52.98-11.5,25.86,11.38-24.72-12.38-33.58,5.75-41.67,6.39-3.32,1.67-8.21,0-11.5-4.23-8.34-13.67-6.62,4.31-17.24Z"/>
          <path class="cls-13" d="m183.92,346.29c-6.4,19.65-3.29,28.22-7.18,25.15-.69-12.35,1.17-25.03,5.75-36.64.76-1.92,6.23-6.8,10.06-15.81,4.81-11.32,5.51-24.26,10.06-28.74-3.37,37.73-10.06,29.59-18.68,56.04Z"/>
          <path class="cls-8" d="m329.76,284.5c-7.32-3.71-73.81-45.18-71.13-53.88,23.87-11.36-.85-5.82-15.81-4.31,20.04,17.05,21.99,54.02,27.3,70.41l.85,38.34c-66.53-57.06-25.33-110.75-42.52-6.01-.22-1.85-2.84-2.99-2.87-3.59-1.02-17.16,4.14-30.8-1.44-29.46q-7.54-12.21-15.09-24.43c-9.36,49.65-9.65,50.36,5.03,94.83,8.95,27.12,2.24,15.35,11.5-25.86.09,14.6-4.05,26.04-5.75,40.47-1.86,15.87.11,21.83,0,22.75l-10.06,5.75c-.15-1.49,2.81-7.76,1.44-13.65-.73-3.14-23.3-26.62-27.3-49.57,8.62-26.45,15.31-18.31,18.68-56.04,1.19-13.33-2.03-38.93,10.06-67.53,2.12.05,4.29,6.38,7.18,0q10.06-3.95,20.12-7.9c10.35-71.17,1.31-36.78-52.45-53.88-27.43-8.73-51.37-33.42-79.75-40.95,35.12.79,69.53,7.52,103.46,15.81-26.04-28.48-35.24-54.69-51.73-84.78-3.37-6.15-16.15-20.08-10.78-19.4,37.77,35.71,76.75,71.59,102.02,117.82q4.67-11.85,9.34-23.71c-15.77-38.03,26.68-88.15,39.51-125.73-2.16,36.16-10.98,72.24-25.15,105.61-5.09,12-12.46,17.64-12.93,18.68-18.47,40.87,17.44-.82,48.14-12.21,21.73-8.06,46.84-6.5,66.1-21.55l2.16,2.16c-23.17,29.18-85.39,66.87-121.42,65.38,7.14,24.14,9.41,63.27-7.18,28.74l-3.59,26.58c1.31,2.93,41.5,1.69,63.94,5.03,33.94,5.05,65.18,20.94,99.14,25.86-35.38,7.93-70.83-2.81-106.33-2.87,14.11,8.3,31.88,41.81,42.83,49.31"/>
          <path class="cls-1" d="m846.32,626.48c-5.72-17.2-5.24-38.7-5.75-57.48,10.59,1.39,3.1-39.98,8.62-66.1.24-.09.65-1.7,4.31-2.87-4,36.62-4.93,87.24-7.18,126.45Z"/>
          <path class="cls-3" d="m834.83,484.23c-3.8,1.07-10.24,3.06-8.62-2.87,6.51-.83,11.14-.55,18.68-5.03q6.11-19.04,12.21-38.08l-5.03,56.76-2.16,2.16c-15.48-19.7,1.34-17.55-15.09-12.93Z"/>
          <path class="cls-8" d="m936.13,504.34c-3.14-.55-11-7.72-16.52-11.5-18.99-12.99-46.4-49.22-18.68-2.16,8.62,8.98,5.69,7.37,10.53,18.84,0,0,9.29,14.58,5.28,15.64s-21.98-16.81-34.49-33.05c-23.91-31.03-20.45-68.05-28.74,7.9-3.66,1.17-4.07,2.78-4.31,2.87-.46.18-5.99,1.32-7.18,1.44-.29.03.41-2.44-5.75,0v-5.75c8.82-2.1,2.8-8.6,2.16-8.62-1.79-.07,3.14,8.71-32.33,5.75,2.13-2.5,4.03-.52,4.31-2.87,17.6,3.41,38.91-8.91,24.43-8.62,16.43-4.62-.4-6.77,15.09,12.93l2.16-2.16,5.03-56.76q-6.11,19.04-12.21,38.08c-7.54,4.48-12.17,4.2-18.68,5.03-4.58.58-25.26,8.62-43.11-16.52-2.5-3.52,18.67,8.46,18.67,4.15,4.4,2.21,20.56,5.87,25.87,5.19,1.86-.24,3.86.15,5.75,0,1.78-.52,2.96-1.62,4.31-2.87,1.51-1.4,14.19-36.8,15.81-38.08,9.24-7.33,28.43-3.53,35.92,1.44,13.04,8.64,20.22,24.51,30.17,36.64,2.9,3.53,2.9,6.53,6,10.14,3.33,3.89,5.31,8.62,8.51,12.61,1.64,2.05,4.6,10.74,2.01,10.29Z"/>
          <path class="cls-8" d="m686.83,576.19c-.75-.64-2.8-2.86-4.31-4.31-3.33-3.19-6.66-6.24-10.06-9.34,3.03-10.22,18.53-22.9,18.68-24.43.48-5.03-4.11,5.14-5.75-6.47,10.88-9.98,22.91-7.98,35.92-7.18,5.96.37,16.23,2.04,22.99,2.87,2.94.36,5.7.97,8.62,1.44.47.07.97-.08,1.44,0,22.74,3.78,27.3,4.65,48.85,12.93,1.4.54,4.4.88,5.75,1.44,20.5,8.45,17.1,3.85,0,10.06-1.46.53-2.88.95-4.31,1.44-20.94,7.16-29.32,10.49-53.16,8.62-3.34-.26-4.69-1.08-7.18-1.44-5.46-.78-19.78-3.99-24.43-5.75-14.49-5.48-20.95-14.38-22.27-14.37-.56,0-7.86,7.35-7.9,7.9-.14,1.86,19.28,20.81,19.28,39.8"/>
          <path class="cls-8" d="m275.88,373.59c-17.6,7.42-18.17,9.84,0,15.81,8.02,2.63,10.07,2.7,17.24,4.31,22.17,4.98,45.06,9.06,67.53,10.78-20.83,5.96-44.49,6.69-66.1,5.03-.45-.03,1.19-1.84-8.62-2.87-3.52-.37-6.62-.95-10.06-1.44-11.76-1.65-23.18-1.98-34.49-6.47,11.21,30.51,8.1,60.95-6.47,89.8-6.03-30.87-21.49-67.06.72-94.12-4.55-5.83-16.09,17.38-18.63,8.22-2.75-9.93,13.76-20.74,34.44-27.27,3.3-1.04,27.62-3.13,24.43-1.78Z"/>
          <path class="cls-8" d="m192.54,318.99c-3.83,9.01-9.3,13.88-10.06,15.81-12.12,4.13-28.59,13.72-40.23,17.24-1.14.35-4.45.73-7.18,1.44-3.16.82-10.89,4.24-11.5,4.31-11.62,1.31-23.22-1.15-34.49-3.59,12.25-2.68,22.79-13.3,33.05-17.96,3.51-1.6,16.32-8.34,17.24-8.62,1-.31,17.16-1.12,20.83-1.44l2.16-2.16c-29.3-21.67,17.11-8.11,30.17-5.03Z"/>
          <path class="cls-8" d="m202.6,537.39c-.47.98,2.08,1.78,1.44,3.59-.45,1.27-2.83.56-2.87.72-13.73,6.39-24.95,18.3-38.8,24.43-9.74,4.31-28.66,11.45-38.8,8.62-1.87-.52-7.57-7.17-10.06-9.34.35-.84,13.05,1.28,17.24.72,5.65-.76,10.58-3.93,15.81-5.75,1.44-.5,2.82-.84,4.31-1.44,23.1-9.33,37.1-27.25,51.73-21.55Z"/>
          <path class="cls-4" d="m206.91,525.9c-5.89.76-11.11-20.77-4.31-24.43-4.22,8.92,2.68,15.93,4.31,24.43Z"/>
          <path class="cls-13" d="m73.28,569c-.53-1.81-2.13-2.52-2.87-4.31,20.81-29.91,16.65-22.63,2.87,4.31Z"/>
          <path class="cls-4" d="m219.84,324.73v-11.5c1.67,3.29,6.39,8.17,0,11.5Z"/>
        </g>
      </g>
    </g>
  </g>
</svg>